<?xml version="1.0" encoding="UTF-8"?>
<!DOCTYPE svg PUBLIC "-//W3C//DTD SVG 1.1//EN" "http://www.w3.org/Graphics/SVG/1.1/DTD/svg11.dtd">
<svg xmlns="http://www.w3.org/2000/svg" version="1.1" width="500px" height="500px" style="shape-rendering:geometricPrecision; text-rendering:geometricPrecision; image-rendering:optimizeQuality; fill-rule:evenodd; clip-rule:evenodd" xmlns:xlink="http://www.w3.org/1999/xlink">
<g><path style="opacity:1" fill="#049302" d="M 218.5,-0.5 C 239.167,-0.5 259.833,-0.5 280.5,-0.5C 365.547,12.6153 429.38,56.6153 472,131.5C 484.852,154.892 493.019,179.892 496.5,206.5C 497.026,210.312 497.693,213.979 498.5,217.5C 498.5,218.167 498.833,218.5 499.5,218.5C 499.5,239.5 499.5,260.5 499.5,281.5C 482.277,383.242 425.277,452.408 328.5,489C 312.937,493.609 297.27,497.109 281.5,499.5C 260.167,499.5 238.833,499.5 217.5,499.5C 144.522,488.504 86.0224,452.837 42,392.5C 19.0932,358.375 4.92652,321.042 -0.5,280.5C -0.5,259.833 -0.5,239.167 -0.5,218.5C 0.166667,218.5 0.5,218.167 0.5,217.5C 1.3069,213.979 1.97357,210.312 2.5,206.5C 15.6377,134.07 52.971,77.5698 114.5,37C 146.471,16.8397 181.138,4.33966 218.5,-0.5 Z M 388.5,165.5 C 389.314,170.119 389.647,174.786 389.5,179.5C 387.448,186.062 384.281,192.062 380,197.5C 341.333,248.833 302.667,300.167 264,351.5C 259.577,357.928 254.41,363.761 248.5,369C 237.74,375.934 226.74,376.267 215.5,370C 181.5,345.667 147.5,321.333 113.5,297C 98.5864,281.657 98.9197,266.657 114.5,252C 122.402,247.403 130.735,246.403 139.5,249C 168.665,267.834 196.999,287.834 224.5,309C 225.5,309.667 226.5,309.667 227.5,309C 265.365,259.435 302.865,209.602 340,159.5C 351.39,146.359 364.557,144.192 379.5,153C 383.168,156.811 386.168,160.978 388.5,165.5 Z"/></g>
<g><path style="opacity:0.455" fill="#8fcd8d" d="M 388.5,165.5 C 390.047,167.807 390.713,170.473 390.5,173.5C 390.495,175.696 390.162,177.696 389.5,179.5C 389.647,174.786 389.314,170.119 388.5,165.5 Z"/></g>
<g><path style="opacity:0.302" fill="#80c87f" d="M 2.5,206.5 C 1.97357,210.312 1.3069,213.979 0.5,217.5C 0.334989,214.15 0.501655,210.817 1,207.5C 1.38258,206.944 1.88258,206.611 2.5,206.5 Z"/></g>
<g><path style="opacity:0.325" fill="#80c87f" d="M 496.5,206.5 C 497.117,206.611 497.617,206.944 498,207.5C 498.498,210.817 498.665,214.15 498.5,217.5C 497.693,213.979 497.026,210.312 496.5,206.5 Z"/></g>
</svg>
