<?xml version="1.0" encoding="UTF-8"?>
<!DOCTYPE svg PUBLIC "-//W3C//DTD SVG 1.1//EN" "http://www.w3.org/Graphics/SVG/1.1/DTD/svg11.dtd">
<svg xmlns="http://www.w3.org/2000/svg" version="1.1" width="341px" height="397px" style="shape-rendering:geometricPrecision; text-rendering:geometricPrecision; image-rendering:optimizeQuality; fill-rule:evenodd; clip-rule:evenodd" xmlns:xlink="http://www.w3.org/1999/xlink">
<g><path style="opacity:0.999" fill="#2c221f" d="M 288.5,56.5 C 287.167,56.5 285.833,56.5 284.5,56.5C 270.331,47.5638 255.164,44.8972 239,48.5C 236.158,37.6579 229.325,30.8245 218.5,28C 203.571,26.4191 189.571,29.2524 176.5,36.5C 171.013,39.0788 166.013,42.4121 161.5,46.5C 161.194,48.6817 161.194,50.6817 161.5,52.5C 146.413,48.4123 131.079,47.4123 115.5,49.5C 115.33,50.8221 115.663,51.9887 116.5,53C 113.148,54.1696 109.814,55.3363 106.5,56.5C 98.8919,58.4383 92.2253,62.105 86.5,67.5C 91.4671,68.329 96.4671,68.829 101.5,69C 102.672,69.4186 103.672,70.0853 104.5,71C 98.6518,71.1728 92.9851,71.6728 87.5,72.5C 71.3534,72.0454 57.5201,77.3787 46,88.5C 43.2171,92.9507 40.0504,97.1174 36.5,101C 35.6683,101.688 35.0016,101.521 34.5,100.5C 35.5804,98.0038 36.9138,95.6705 38.5,93.5C 37.9984,92.479 37.3317,92.3123 36.5,93C 31.1352,97.5853 27.1352,103.085 24.5,109.5C 16.4616,126.961 21.1283,140.128 38.5,149C 45.6671,151.345 53.0004,152.011 60.5,151C 63.8946,149.885 67.0613,148.385 70,146.5C 70.7063,144.029 70.373,141.695 69,139.5C 66.3333,136.167 63.6667,132.833 61,129.5C 60.235,127.934 60.4017,126.601 61.5,125.5C 63.5732,127.58 65.9066,129.246 68.5,130.5C 72.5027,134.501 75.5027,139.168 77.5,144.5C 89.8436,138.327 102.51,132.827 115.5,128C 112.5,124.486 110.167,120.653 108.5,116.5C 108.201,114.396 108.534,112.396 109.5,110.5C 111.582,112.422 112.916,114.755 113.5,117.5C 115.064,122.906 118.564,125.906 124,126.5C 138.747,124.293 153.581,123.127 168.5,123C 171.656,120.86 173.99,118.026 175.5,114.5C 176.777,112.05 178.277,109.717 180,107.5C 180.495,109.473 180.662,111.473 180.5,113.5C 178.399,116.797 177.065,120.463 176.5,124.5C 186.982,125.538 197.315,127.371 207.5,130C 214.014,130.82 220.347,130.653 226.5,129.5C 228.937,129.244 231.271,128.577 233.5,127.5C 234.463,127.97 234.463,128.637 233.5,129.5C 231.158,131.317 229.991,133.65 230,136.5C 233.288,138.893 236.788,140.893 240.5,142.5C 241.773,143.257 241.773,143.923 240.5,144.5C 229.378,139.468 217.711,136.134 205.5,134.5C 196.775,132.297 187.775,131.131 178.5,131C 150.515,127.833 123.515,131.499 97.5,142C 94.328,143.752 91.328,145.752 88.5,148C 91.0876,147.243 93.7543,146.243 96.5,145C 98.8333,144.333 101.167,144.333 103.5,145C 98.5854,147.575 93.9187,150.575 89.5,154C 93.2562,154.35 96.9228,153.85 100.5,152.5C 101.696,152.846 101.696,153.346 100.5,154C 94.0425,156.059 88.3759,159.393 83.5,164C 85.5767,164.192 87.5767,164.692 89.5,165.5C 84.5918,169.412 83.2585,174.412 85.5,180.5C 88.8968,178.474 92.2301,176.474 95.5,174.5C 96.7498,174.577 97.5831,175.244 98,176.5C 98.4966,178.81 98.6633,181.143 98.5,183.5C 97.5,183.833 96.8333,184.5 96.5,185.5C 93.5691,187.091 90.9024,189.091 88.5,191.5C 90.6432,193.21 92.9765,194.543 95.5,195.5C 96.209,196.404 97.209,196.737 98.5,196.5C 98.5,198.833 98.5,201.167 98.5,203.5C 97.9779,205.219 96.9779,206.552 95.5,207.5C 86.8223,206.257 80.3223,201.923 76,194.5C 74.8134,185.217 74.1467,175.883 74,166.5C 73.7862,161.691 72.2862,157.357 69.5,153.5C 52.654,159.968 36.654,158.468 21.5,149C 12.5441,139.596 9.37747,128.429 12,115.5C 16.217,99.2747 25.717,87.108 40.5,79C 49.1664,73.8323 58.4997,70.499 68.5,69C 76.2173,66.2925 82.5506,61.6258 87.5,55C 99.6305,47.012 112.964,42.512 127.5,41.5C 135.794,43.2615 144.128,44.4281 152.5,45C 160.453,39.3816 168.12,33.3816 175.5,27C 194.405,18.2555 213.072,18.5888 231.5,28C 236.709,31.9233 239.709,37.09 240.5,43.5C 255.829,41.4168 270.163,44.2501 283.5,52C 285.618,53.0491 287.284,54.5491 288.5,56.5 Z"/></g>
<g><path style="opacity:1" fill="#fefefe" d="M 284.5,56.5 C 296.749,65.7367 301.249,78.0701 298,93.5C 296.65,99.2354 295.15,104.902 293.5,110.5C 290.397,112.423 287.397,114.59 284.5,117C 271.367,118.065 261.7,124.399 255.5,136C 248.931,140.522 242.264,140.522 235.5,136C 233.771,134.211 233.104,132.044 233.5,129.5C 234.463,128.637 234.463,127.97 233.5,127.5C 231.271,128.577 228.937,129.244 226.5,129.5C 215.537,128.259 204.871,125.759 194.5,122C 189.339,119.922 184.672,117.089 180.5,113.5C 180.662,111.473 180.495,109.473 180,107.5C 178.277,109.717 176.777,112.05 175.5,114.5C 155.046,119.785 134.379,120.785 113.5,117.5C 112.916,114.755 111.582,112.422 109.5,110.5C 108.534,112.396 108.201,114.396 108.5,116.5C 108.607,118.903 107.607,120.736 105.5,122C 94.2454,129.7 81.9121,132.533 68.5,130.5C 65.9066,129.246 63.5732,127.58 61.5,125.5C 61.44,124.957 61.1067,124.624 60.5,124.5C 60.1888,128.979 57.8555,131.813 53.5,133C 34.2343,137.032 24.5677,129.199 24.5,109.5C 27.1352,103.085 31.1352,97.5853 36.5,93C 37.3317,92.3123 37.9984,92.479 38.5,93.5C 36.9138,95.6705 35.5804,98.0038 34.5,100.5C 35.0016,101.521 35.6683,101.688 36.5,101C 40.0504,97.1174 43.2171,92.9507 46,88.5C 57.5201,77.3787 71.3534,72.0454 87.5,72.5C 99.8378,72.6665 112.171,72.4999 124.5,72C 117.352,70.1774 111.185,66.6774 106,61.5C 105.616,59.8034 105.782,58.1368 106.5,56.5C 109.814,55.3363 113.148,54.1696 116.5,53C 115.663,51.9887 115.33,50.8221 115.5,49.5C 131.079,47.4123 146.413,48.4123 161.5,52.5C 170.505,56.672 177.005,63.3386 181,72.5C 181.546,69.1008 181.213,65.7675 180,62.5C 177.293,57.9557 174.793,53.2891 172.5,48.5C 172.964,44.1392 174.297,40.1392 176.5,36.5C 189.571,29.2524 203.571,26.4191 218.5,28C 229.325,30.8245 236.158,37.6579 239,48.5C 255.164,44.8972 270.331,47.5638 284.5,56.5 Z"/></g>
<g><path style="opacity:1" fill="#d9d9da" d="M 176.5,36.5 C 174.297,40.1392 172.964,44.1392 172.5,48.5C 174.793,53.2891 177.293,57.9557 180,62.5C 181.213,65.7675 181.546,69.1008 181,72.5C 177.005,63.3386 170.505,56.672 161.5,52.5C 161.194,50.6817 161.194,48.6817 161.5,46.5C 166.013,42.4121 171.013,39.0788 176.5,36.5 Z"/></g>
<g><path style="opacity:1" fill="#d9d9da" d="M 106.5,56.5 C 105.782,58.1368 105.616,59.8034 106,61.5C 111.185,66.6774 117.352,70.1774 124.5,72C 112.171,72.4999 99.8378,72.6665 87.5,72.5C 92.9851,71.6728 98.6518,71.1728 104.5,71C 103.672,70.0853 102.672,69.4186 101.5,69C 96.4671,68.829 91.4671,68.329 86.5,67.5C 92.2253,62.105 98.8919,58.4383 106.5,56.5 Z"/></g>
<g><path style="opacity:0.999" fill="#312724" d="M 284.5,56.5 C 285.833,56.5 287.167,56.5 288.5,56.5C 290.716,57.2026 292.549,58.5359 294,60.5C 303.446,74.1911 306.113,89.1911 302,105.5C 300.587,110.739 298.587,115.739 296,120.5C 284.313,124.519 275.313,131.853 269,142.5C 265.078,149.342 261.412,156.342 258,163.5C 256.333,173.5 254.667,183.5 253,193.5C 250.597,198.072 247.097,201.405 242.5,203.5C 242.167,203.5 241.833,203.5 241.5,203.5C 241.5,202.167 241.5,200.833 241.5,199.5C 244.522,198.478 246.522,196.478 247.5,193.5C 247.5,193.167 247.5,192.833 247.5,192.5C 247.573,190.973 246.906,189.973 245.5,189.5C 244.71,188.599 243.71,187.932 242.5,187.5C 242.5,185.167 242.5,182.833 242.5,180.5C 244.297,181.73 246.297,182.396 248.5,182.5C 249.048,172.91 251.548,163.91 256,155.5C 257.512,154.743 258.846,153.743 260,152.5C 262.435,134.568 272.268,122.901 289.5,117.5C 290.861,115.15 292.194,112.816 293.5,110.5C 295.15,104.902 296.65,99.2354 298,93.5C 301.249,78.0701 296.749,65.7367 284.5,56.5 Z"/></g>
<g><path style="opacity:1" fill="#d7d7d8" d="M 24.5,109.5 C 24.5677,129.199 34.2343,137.032 53.5,133C 57.8555,131.813 60.1888,128.979 60.5,124.5C 61.1067,124.624 61.44,124.957 61.5,125.5C 60.4017,126.601 60.235,127.934 61,129.5C 63.6667,132.833 66.3333,136.167 69,139.5C 70.373,141.695 70.7063,144.029 70,146.5C 67.0613,148.385 63.8946,149.885 60.5,151C 53.0004,152.011 45.6671,151.345 38.5,149C 21.1283,140.128 16.4616,126.961 24.5,109.5 Z"/></g>
<g><path style="opacity:1" fill="#d5d4d5" d="M 180.5,113.5 C 184.672,117.089 189.339,119.922 194.5,122C 204.871,125.759 215.537,128.259 226.5,129.5C 220.347,130.653 214.014,130.82 207.5,130C 197.315,127.371 186.982,125.538 176.5,124.5C 177.065,120.463 178.399,116.797 180.5,113.5 Z"/></g>
<g><path style="opacity:1" fill="#d9d9da" d="M 175.5,114.5 C 173.99,118.026 171.656,120.86 168.5,123C 153.581,123.127 138.747,124.293 124,126.5C 118.564,125.906 115.064,122.906 113.5,117.5C 134.379,120.785 155.046,119.785 175.5,114.5 Z"/></g>
<g><path style="opacity:1" fill="#d8d8d8" d="M 108.5,116.5 C 110.167,120.653 112.5,124.486 115.5,128C 102.51,132.827 89.8436,138.327 77.5,144.5C 75.5027,139.168 72.5027,134.501 68.5,130.5C 81.9121,132.533 94.2454,129.7 105.5,122C 107.607,120.736 108.607,118.903 108.5,116.5 Z"/></g>
<g><path style="opacity:0.999" fill="#d8d8d8" d="M 293.5,110.5 C 292.194,112.816 290.861,115.15 289.5,117.5C 272.268,122.901 262.435,134.568 260,152.5C 258.846,153.743 257.512,154.743 256,155.5C 251.548,163.91 249.048,172.91 248.5,182.5C 246.297,182.396 244.297,181.73 242.5,180.5C 241.528,178.08 242.195,176.08 244.5,174.5C 246.933,173.452 246.933,172.786 244.5,172.5C 247.508,164.784 248.675,156.784 248,148.5C 245.745,146.501 243.245,145.168 240.5,144.5C 241.773,143.923 241.773,143.257 240.5,142.5C 236.788,140.893 233.288,138.893 230,136.5C 229.991,133.65 231.158,131.317 233.5,129.5C 233.104,132.044 233.771,134.211 235.5,136C 242.264,140.522 248.931,140.522 255.5,136C 261.7,124.399 271.367,118.065 284.5,117C 287.397,114.59 290.397,112.423 293.5,110.5 Z"/></g>
<g><path style="opacity:1" fill="#d6d6d6" d="M 205.5,134.5 C 186.152,134.408 166.819,134.908 147.5,136C 137.87,138.793 128.203,141.459 118.5,144C 113.124,146.04 109.957,149.873 109,155.5C 105.364,158.413 103.697,162.08 104,166.5C 105.488,168.16 107.321,169.16 109.5,169.5C 107.371,170.203 105.371,171.203 103.5,172.5C 100.15,172.335 96.8168,172.502 93.5,173C 94.0442,173.717 94.7109,174.217 95.5,174.5C 92.2301,176.474 88.8968,178.474 85.5,180.5C 83.2585,174.412 84.5918,169.412 89.5,165.5C 87.5767,164.692 85.5767,164.192 83.5,164C 88.3759,159.393 94.0425,156.059 100.5,154C 101.696,153.346 101.696,152.846 100.5,152.5C 96.9228,153.85 93.2562,154.35 89.5,154C 93.9187,150.575 98.5854,147.575 103.5,145C 101.167,144.333 98.8333,144.333 96.5,145C 93.7543,146.243 91.0876,147.243 88.5,148C 91.328,145.752 94.328,143.752 97.5,142C 123.515,131.499 150.515,127.833 178.5,131C 187.775,131.131 196.775,132.297 205.5,134.5 Z"/></g>
<g><path style="opacity:1" fill="#fdfcfc" d="M 205.5,134.5 C 217.711,136.134 229.378,139.468 240.5,144.5C 243.245,145.168 245.745,146.501 248,148.5C 248.675,156.784 247.508,164.784 244.5,172.5C 238.167,172.5 231.833,172.5 225.5,172.5C 223.708,172.634 222.042,172.301 220.5,171.5C 183.659,161.819 146.659,161.153 109.5,169.5C 107.321,169.16 105.488,168.16 104,166.5C 103.697,162.08 105.364,158.413 109,155.5C 109.957,149.873 113.124,146.04 118.5,144C 128.203,141.459 137.87,138.793 147.5,136C 166.819,134.908 186.152,134.408 205.5,134.5 Z"/></g>
<g><path style="opacity:1" fill="#dfdfe0" d="M 158.5,142.5 C 175.658,141.88 192.324,144.38 208.5,150C 198.807,149.59 189.141,148.59 179.5,147C 167.167,146.667 154.833,146.333 142.5,146C 147.871,144.362 153.204,143.195 158.5,142.5 Z"/></g>
<g><path style="opacity:1" fill="#dfdfe0" d="M 165.5,151.5 C 178.632,151.744 191.298,154.244 203.5,159C 186.61,156.812 169.61,155.479 152.5,155C 156.897,153.628 161.231,152.462 165.5,151.5 Z"/></g>
<g><path style="opacity:1" fill="#261c19" d="M 220.5,171.5 C 211.014,172.494 201.348,172.827 191.5,172.5C 189.167,172.5 186.833,172.5 184.5,172.5C 177.401,170.956 170.068,170.29 162.5,170.5C 153.95,170.354 145.616,171.02 137.5,172.5C 126.167,172.5 114.833,172.5 103.5,172.5C 105.371,171.203 107.371,170.203 109.5,169.5C 146.659,161.153 183.659,161.819 220.5,171.5 Z"/></g>
<g><path style="opacity:1" fill="#c3c2c2" d="M 184.5,172.5 C 168.833,172.5 153.167,172.5 137.5,172.5C 145.616,171.02 153.95,170.354 162.5,170.5C 170.068,170.29 177.401,170.956 184.5,172.5 Z"/></g>
<g><path style="opacity:1" fill="#947546" d="M 220.5,171.5 C 222.042,172.301 223.708,172.634 225.5,172.5C 225.5,172.833 225.5,173.167 225.5,173.5C 213.988,173.828 202.654,173.495 191.5,172.5C 201.348,172.827 211.014,172.494 220.5,171.5 Z"/></g>
<g><path style="opacity:1" fill="#ebce9f" d="M 225.5,173.5 C 225.5,173.167 225.5,172.833 225.5,172.5C 231.833,172.5 238.167,172.5 244.5,172.5C 246.933,172.786 246.933,173.452 244.5,174.5C 238.355,173.51 232.022,173.177 225.5,173.5 Z"/></g>
<g><path style="opacity:1" fill="#e0b061" d="M 103.5,172.5 C 114.833,172.5 126.167,172.5 137.5,172.5C 153.167,172.5 168.833,172.5 184.5,172.5C 186.833,172.5 189.167,172.5 191.5,172.5C 202.654,173.495 213.988,173.828 225.5,173.5C 232.022,173.177 238.355,173.51 244.5,174.5C 242.195,176.08 241.528,178.08 242.5,180.5C 242.5,182.833 242.5,185.167 242.5,187.5C 241.728,191.452 241.395,195.452 241.5,199.5C 241.5,200.833 241.5,202.167 241.5,203.5C 240.559,205.05 239.893,206.716 239.5,208.5C 237.108,211.598 234.942,214.931 233,218.5C 230.163,213.828 228.163,208.828 227,203.5C 223.942,199.279 220.442,195.612 216.5,192.5C 215.374,190.547 213.708,189.047 211.5,188C 204.547,186.837 197.547,186.337 190.5,186.5C 190.5,187.5 190.5,188.5 190.5,189.5C 186.607,191.447 182.607,193.447 178.5,195.5C 174.937,195.625 172.437,197.292 171,200.5C 168.576,196.568 165.076,194.568 160.5,194.5C 158.046,193.773 155.713,192.773 153.5,191.5C 153.611,190.883 153.944,190.383 154.5,190C 143.776,187.865 133.109,188.032 122.5,190.5C 121.614,189.675 121.281,188.675 121.5,187.5C 117.483,188.182 114.483,190.349 112.5,194C 109.124,194.307 107.79,196.14 108.5,199.5C 113.353,200.309 113.353,201.976 108.5,204.5C 107.186,203.687 106.019,202.687 105,201.5C 104.667,196.5 104.333,191.5 104,186.5C 101.982,185.777 100.148,184.777 98.5,183.5C 98.6633,181.143 98.4966,178.81 98,176.5C 97.5831,175.244 96.7498,174.577 95.5,174.5C 94.7109,174.217 94.0442,173.717 93.5,173C 96.8168,172.502 100.15,172.335 103.5,172.5 Z"/></g>
<g><path style="opacity:1" fill="#deb26b" d="M 98.5,183.5 C 100.148,184.777 101.982,185.777 104,186.5C 104.333,191.5 104.667,196.5 105,201.5C 106.019,202.687 107.186,203.687 108.5,204.5C 113.353,201.976 113.353,200.309 108.5,199.5C 107.79,196.14 109.124,194.307 112.5,194C 114.483,190.349 117.483,188.182 121.5,187.5C 121.281,188.675 121.614,189.675 122.5,190.5C 133.109,188.032 143.776,187.865 154.5,190C 153.944,190.383 153.611,190.883 153.5,191.5C 145.607,189.614 137.607,189.114 129.5,190C 124.367,192.654 119.867,196.154 116,200.5C 113.052,206.728 110.385,213.062 108,219.5C 107.292,218.619 106.458,217.953 105.5,217.5C 104.209,212.251 101.876,207.584 98.5,203.5C 98.5,201.167 98.5,198.833 98.5,196.5C 98.5,192.167 98.5,187.833 98.5,183.5 Z"/></g>
<g><path style="opacity:1" fill="#deb978" d="M 216.5,192.5 C 208.21,188.737 199.543,187.737 190.5,189.5C 190.5,188.5 190.5,187.5 190.5,186.5C 197.547,186.337 204.547,186.837 211.5,188C 213.708,189.047 215.374,190.547 216.5,192.5 Z"/></g>
<g><path style="opacity:0.274" fill="#d4d1ce" d="M 242.5,187.5 C 243.71,187.932 244.71,188.599 245.5,189.5C 246.906,189.973 247.573,190.973 247.5,192.5C 246.167,192.833 246.167,193.167 247.5,193.5C 246.522,196.478 244.522,198.478 241.5,199.5C 241.395,195.452 241.728,191.452 242.5,187.5 Z"/></g>
<g><path style="opacity:0.044" fill="#d2cabe" d="M 98.5,183.5 C 98.5,187.833 98.5,192.167 98.5,196.5C 97.209,196.737 96.209,196.404 95.5,195.5C 96.7773,194.306 97.4439,192.64 97.5,190.5C 97.4932,188.631 97.1599,186.964 96.5,185.5C 96.8333,184.5 97.5,183.833 98.5,183.5 Z"/></g>
<g><path style="opacity:1" fill="#ecd8c0" d="M 216.5,192.5 C 220.442,195.612 223.942,199.279 227,203.5C 228.163,208.828 230.163,213.828 233,218.5C 234.942,214.931 237.108,211.598 239.5,208.5C 239.5,209.167 239.5,209.833 239.5,210.5C 233.853,221.795 228.186,233.128 222.5,244.5C 220.457,245.579 219.124,247.246 218.5,249.5C 214.719,250.211 211.719,249.045 209.5,246C 206.058,244.721 202.725,243.221 199.5,241.5C 198.833,241.167 198.167,240.833 197.5,240.5C 196.048,239.698 194.382,239.198 192.5,239C 191.663,237.989 191.33,236.822 191.5,235.5C 185.785,234.951 181.119,232.451 177.5,228C 173.311,227.188 169.311,227.355 165.5,228.5C 155.659,232.26 145.992,236.26 136.5,240.5C 136.5,241.5 136.5,242.5 136.5,243.5C 131.529,243.544 126.862,244.544 122.5,246.5C 119.74,240.433 116.74,234.433 113.5,228.5C 112.167,228.5 110.833,228.5 109.5,228.5C 109.768,226.901 109.434,225.568 108.5,224.5C 108.5,224.167 108.5,223.833 108.5,223.5C 106.683,221.988 105.683,219.988 105.5,217.5C 106.458,217.953 107.292,218.619 108,219.5C 110.385,213.062 113.052,206.728 116,200.5C 119.867,196.154 124.367,192.654 129.5,190C 137.607,189.114 145.607,189.614 153.5,191.5C 155.713,192.773 158.046,193.773 160.5,194.5C 164.054,200.604 169.054,202.437 175.5,200C 176.883,198.729 177.883,197.229 178.5,195.5C 182.607,193.447 186.607,191.447 190.5,189.5C 199.543,187.737 208.21,188.737 216.5,192.5 Z"/></g>
<g><path style="opacity:1" fill="#e0ba7d" d="M 160.5,194.5 C 165.076,194.568 168.576,196.568 171,200.5C 172.437,197.292 174.937,195.625 178.5,195.5C 177.883,197.229 176.883,198.729 175.5,200C 169.054,202.437 164.054,200.604 160.5,194.5 Z"/></g>
<g><path style="opacity:1" fill="#a68247" d="M 152.5,214.5 C 152.167,215.167 151.833,215.833 151.5,216.5C 148.157,217.224 144.824,218.057 141.5,219C 138.167,219.667 134.833,219.667 131.5,219C 127.998,212.793 127.498,206.293 130,199.5C 137.803,198.179 145.637,198.179 153.5,199.5C 153.833,201 154.167,202.5 154.5,204C 153.975,207.541 153.308,211.041 152.5,214.5 Z"/></g>
<g><path style="opacity:1" fill="#a88a5a" d="M 152.5,214.5 C 153.308,211.041 153.975,207.541 154.5,204C 154.167,202.5 153.833,201 153.5,199.5C 145.637,198.179 137.803,198.179 130,199.5C 127.498,206.293 127.998,212.793 131.5,219C 134.833,219.667 138.167,219.667 141.5,219C 144.824,218.057 148.157,217.224 151.5,216.5C 131.832,227.338 123.998,221.671 128,199.5C 128.5,199 129,198.5 129.5,198C 137.833,197.333 146.167,197.333 154.5,198C 155.635,202.748 155.802,207.581 155,212.5C 154.292,213.381 153.458,214.047 152.5,214.5 Z"/></g>
<g><path style="opacity:1" fill="#45403b" d="M 197.5,202.5 C 206.868,202.006 209.535,205.839 205.5,214C 199.35,216.925 195.683,215.092 194.5,208.5C 194.628,206.045 195.628,204.045 197.5,202.5 Z"/></g>
<g><path style="opacity:0.998" fill="#e5e5e4" d="M 98.5,203.5 C 101.876,207.584 104.209,212.251 105.5,217.5C 105.683,219.988 106.683,221.988 108.5,223.5C 104.311,221.891 102.311,219.058 102.5,215C 101.551,214.383 100.718,214.549 100,215.5C 98.47,220.256 99.3034,224.756 102.5,229C 99.9448,233.128 98.9448,237.462 99.5,242C 98.9136,244.28 98.0803,246.447 97,248.5C 96.6667,247.833 96.3333,247.167 96,246.5C 95.8855,251.763 94.7189,256.763 92.5,261.5C 93.9753,264.245 93.3087,266.412 90.5,268C 91.428,268.388 92.0946,269.055 92.5,270C 89.7504,273.664 88.7504,277.664 89.5,282C 88.5966,285.067 87.43,285.567 86,283.5C 85.51,284.793 85.3433,286.127 85.5,287.5C 80.5546,282.155 78.7212,275.821 80,268.5C 86.0138,248.107 91.1804,227.774 95.5,207.5C 96.9779,206.552 97.9779,205.219 98.5,203.5 Z"/></g>
<g><path style="opacity:1" fill="#e6e6e6" d="M 241.5,203.5 C 241.833,203.5 242.167,203.5 242.5,203.5C 249.369,226.473 255.703,249.639 261.5,273C 259.956,280.251 256.956,286.751 252.5,292.5C 252.586,290.323 253.253,288.323 254.5,286.5C 253.619,282.964 252.286,279.63 250.5,276.5C 249.212,266.276 247.046,256.276 244,246.5C 241.545,244.572 241.378,242.738 243.5,241C 238.51,231.519 237.51,221.852 240.5,212C 240.43,211.235 240.097,210.735 239.5,210.5C 239.5,209.833 239.5,209.167 239.5,208.5C 239.893,206.716 240.559,205.05 241.5,203.5 Z"/></g>
<g><path style="opacity:1" fill="#dcdcdc" d="M 239.5,210.5 C 240.097,210.735 240.43,211.235 240.5,212C 237.51,221.852 238.51,231.519 243.5,241C 241.378,242.738 241.545,244.572 244,246.5C 247.046,256.276 249.212,266.276 250.5,276.5C 252.286,279.63 253.619,282.964 254.5,286.5C 253.253,288.323 252.586,290.323 252.5,292.5C 250.207,299.752 246.874,306.419 242.5,312.5C 237.184,289.267 231.017,266.267 224,243.5C 223.617,244.056 223.117,244.389 222.5,244.5C 228.186,233.128 233.853,221.795 239.5,210.5 Z"/></g>
<g><path style="opacity:1" fill="#dcdcdc" d="M 108.5,223.5 C 108.5,223.833 108.5,224.167 108.5,224.5C 108.5,226.167 108.5,227.833 108.5,229.5C 109.822,229.33 110.989,229.663 112,230.5C 113.202,233.774 114.202,237.107 115,240.5C 115.995,241.066 116.828,241.733 117.5,242.5C 116.069,242.881 115.236,243.881 115,245.5C 109.391,268.157 103.891,290.823 98.5,313.5C 93.6588,305.151 89.3255,296.484 85.5,287.5C 85.3433,286.127 85.51,284.793 86,283.5C 87.43,285.567 88.5966,285.067 89.5,282C 88.7504,277.664 89.7504,273.664 92.5,270C 92.0946,269.055 91.428,268.388 90.5,268C 93.3087,266.412 93.9753,264.245 92.5,261.5C 94.7189,256.763 95.8855,251.763 96,246.5C 96.3333,247.167 96.6667,247.833 97,248.5C 98.0803,246.447 98.9136,244.28 99.5,242C 98.9448,237.462 99.9448,233.128 102.5,229C 99.3034,224.756 98.47,220.256 100,215.5C 100.718,214.549 101.551,214.383 102.5,215C 102.311,219.058 104.311,221.891 108.5,223.5 Z"/></g>
<g><path style="opacity:1" fill="#e4e4e4" d="M 197.5,240.5 C 196.252,241.334 195.585,242.667 195.5,244.5C 202.108,279.149 208.608,313.815 215,348.5C 211.951,315.58 206.951,282.913 200,250.5C 199.502,247.518 199.335,244.518 199.5,241.5C 202.725,243.221 206.058,244.721 209.5,246C 211.719,249.045 214.719,250.211 218.5,249.5C 224.831,272.824 231.165,296.157 237.5,319.5C 237.957,320.298 238.624,320.631 239.5,320.5C 239.364,323.551 239.698,326.551 240.5,329.5C 240.281,330.938 239.781,332.271 239,333.5C 231.833,338.667 224.667,343.833 217.5,349C 217.166,352.987 215.5,356.32 212.5,359C 198.617,366.108 184.617,372.941 170.5,379.5C 155.716,372.608 141.049,365.441 126.5,358C 124.879,355.834 124.045,353.334 124,350.5C 116.847,344.591 109.514,338.925 102,333.5C 101.734,329.026 101.567,324.693 101.5,320.5C 107.267,307.551 111.434,293.885 114,279.5C 117.413,270.362 119.913,261.028 121.5,251.5C 124.279,250.111 127.279,249.278 130.5,249C 131.803,245.956 134.136,244.789 137.5,245.5C 137.5,244.5 137.5,243.5 137.5,242.5C 138.833,242.5 140.167,242.5 141.5,242.5C 137.301,272.995 132.134,303.328 126,333.5C 125.646,337.354 125.146,341.188 124.5,345C 124.509,346.404 125.009,347.57 126,348.5C 133.466,312.336 139.966,276.003 145.5,239.5C 148.623,238.773 151.29,237.273 153.5,235C 158.24,234.131 162.24,231.964 165.5,228.5C 169.311,227.355 173.311,227.188 177.5,228C 181.119,232.451 185.785,234.951 191.5,235.5C 191.33,236.822 191.663,237.989 192.5,239C 194.382,239.198 196.048,239.698 197.5,240.5 Z"/></g>
<g><path style="opacity:1" fill="#c5c5c5" d="M 145.5,239.5 C 139.966,276.003 133.466,312.336 126,348.5C 125.009,347.57 124.509,346.404 124.5,345C 125.146,341.188 125.646,337.354 126,333.5C 132.134,303.328 137.301,272.995 141.5,242.5C 142.833,241.5 144.167,240.5 145.5,239.5 Z"/></g>
<g><path style="opacity:1" fill="#c8c8c8" d="M 197.5,240.5 C 198.167,240.833 198.833,241.167 199.5,241.5C 199.335,244.518 199.502,247.518 200,250.5C 206.951,282.913 211.951,315.58 215,348.5C 208.608,313.815 202.108,279.149 195.5,244.5C 195.585,242.667 196.252,241.334 197.5,240.5 Z"/></g>
<g><path style="opacity:1" fill="#cdcdcd" d="M 117.5,242.5 C 119.874,244.934 121.208,247.934 121.5,251.5C 119.913,261.028 117.413,270.362 114,279.5C 111.434,293.885 107.267,307.551 101.5,320.5C 100.011,318.355 99.0115,316.022 98.5,313.5C 103.891,290.823 109.391,268.157 115,245.5C 115.236,243.881 116.069,242.881 117.5,242.5 Z"/></g>
<g><path style="opacity:1" fill="#6e6e6e" d="M 178.5,250.5 C 178.5,248.5 178.5,246.5 178.5,244.5C 173.5,244.5 168.5,244.5 163.5,244.5C 163.5,246.833 163.5,249.167 163.5,251.5C 162.527,249.052 162.194,246.385 162.5,243.5C 168.167,243.5 173.833,243.5 179.5,243.5C 179.802,246.059 179.468,248.393 178.5,250.5 Z"/></g>
<g><path style="opacity:0.999" fill="#cdcdce" d="M 242.5,312.5 C 242.06,315.38 241.06,318.046 239.5,320.5C 238.624,320.631 237.957,320.298 237.5,319.5C 231.165,296.157 224.831,272.824 218.5,249.5C 219.124,247.246 220.457,245.579 222.5,244.5C 223.117,244.389 223.617,244.056 224,243.5C 231.017,266.267 237.184,289.267 242.5,312.5 Z"/></g>
<g><path style="opacity:1" fill="#e6dbcf" d="M 108.5,224.5 C 109.434,225.568 109.768,226.901 109.5,228.5C 110.833,228.5 112.167,228.5 113.5,228.5C 116.74,234.433 119.74,240.433 122.5,246.5C 126.862,244.544 131.529,243.544 136.5,243.5C 136.5,242.5 136.5,241.5 136.5,240.5C 145.992,236.26 155.659,232.26 165.5,228.5C 162.24,231.964 158.24,234.131 153.5,235C 151.29,237.273 148.623,238.773 145.5,239.5C 144.167,240.5 142.833,241.5 141.5,242.5C 140.167,242.5 138.833,242.5 137.5,242.5C 137.5,243.5 137.5,244.5 137.5,245.5C 134.136,244.789 131.803,245.956 130.5,249C 127.279,249.278 124.279,250.111 121.5,251.5C 121.208,247.934 119.874,244.934 117.5,242.5C 116.828,241.733 115.995,241.066 115,240.5C 114.202,237.107 113.202,233.774 112,230.5C 110.989,229.663 109.822,229.33 108.5,229.5C 108.5,227.833 108.5,226.167 108.5,224.5 Z"/></g>
<g><path style="opacity:1" fill="#393939" d="M 178.5,250.5 C 176.304,257.169 171.971,259.002 165.5,256C 164.418,254.67 163.751,253.17 163.5,251.5C 163.5,249.167 163.5,246.833 163.5,244.5C 168.5,244.5 173.5,244.5 178.5,244.5C 178.5,246.5 178.5,248.5 178.5,250.5 Z"/></g>
</svg>
