<?xml version="1.0" standalone="no"?>
<!DOCTYPE svg PUBLIC "-//W3C//DTD SVG 20010904//EN"
 "http://www.w3.org/TR/2001/REC-SVG-20010904/DTD/svg10.dtd">
<svg version="1.0" xmlns="http://www.w3.org/2000/svg"
 width="162.000000pt" height="143.000000pt" viewBox="0 0 162.000000 143.000000"
 preserveAspectRatio="xMidYMid meet">

<g transform="translate(0.000000,143.000000) scale(0.100000,-0.100000)"
fill="#000000" stroke="none">
<path d="M471 1159 c-113 -37 -126 -50 -192 -184 -60 -122 -96 -261 -105 -399
-10 -158 -8 -164 84 -218 107 -62 210 -104 228 -92 8 5 26 28 40 51 l25 42
-51 22 c-27 12 -50 26 -50 31 0 19 30 18 101 -6 158 -53 313 -53 477 1 60 19
85 24 93 16 8 -8 -2 -18 -40 -37 -28 -15 -51 -28 -51 -31 0 -2 12 -25 28 -50
24 -41 30 -46 55 -41 39 8 163 67 230 109 l57 37 0 109 c0 195 -45 370 -135
523 l-44 76 -84 30 c-45 17 -104 33 -130 37 -46 7 -48 6 -57 -21 l-10 -29
-150 0 -150 0 -11 28 c-15 35 -38 35 -158 -4z m187 -389 c97 -97 -6 -269 -124
-205 -73 39 -87 152 -25 207 45 40 108 39 149 -2z m400 14 c70 -48 68 -157 -4
-213 -92 -72 -216 59 -159 169 21 41 53 60 100 60 22 0 51 -7 63 -16z"/>
</g>
</svg>
