<?xml version="1.0" standalone="no"?>
<!DOCTYPE svg PUBLIC "-//W3C//DTD SVG 20010904//EN"
 "http://www.w3.org/TR/2001/REC-SVG-20010904/DTD/svg10.dtd">
<svg version="1.0" xmlns="http://www.w3.org/2000/svg"
 width="142.000000pt" height="139.000000pt" viewBox="0 0 142.000000 139.000000"
 preserveAspectRatio="xMidYMid meet">

<g transform="translate(0.000000,139.000000) scale(0.100000,-0.100000)"
fill="#000000" stroke="none">
<path d="M660 1270 c-205 -31 -384 -194 -429 -391 -15 -65 -13 -197 4 -264 43
-163 179 -305 343 -355 35 -11 66 -20 68 -20 2 0 4 81 4 180 l0 180 -65 0 -65
0 0 80 0 80 65 0 65 0 0 80 c0 177 81 250 258 233 l62 -6 0 -68 0 -69 -55 0
c-76 0 -95 -22 -95 -107 l0 -63 75 0 74 0 -5 -27 c-3 -16 -8 -50 -12 -78 l-7
-50 -63 -3 -62 -3 0 -179 c0 -99 2 -180 4 -180 2 0 33 9 68 20 167 51 309 203
347 370 13 58 13 192 0 250 -15 67 -64 160 -115 218 -113 129 -297 197 -464
172z"/>
</g>
</svg>
