<?xml version="1.0" standalone="no"?>
<!DOCTYPE svg PUBLIC "-//W3C//DTD SVG 20010904//EN"
 "http://www.w3.org/TR/2001/REC-SVG-20010904/DTD/svg10.dtd">
<svg version="1.0" xmlns="http://www.w3.org/2000/svg"
 width="134.000000pt" height="144.000000pt" viewBox="0 0 134.000000 144.000000"
 preserveAspectRatio="xMidYMid meet">

<g transform="translate(0.000000,144.000000) scale(0.100000,-0.100000)"
fill="#000000" stroke="none">
<path d="M612 1259 c-87 -13 -162 -43 -230 -93 -318 -235 -246 -761 124 -902
57 -22 64 -14 64 74 l0 62 -55 0 c-73 0 -102 15 -130 69 -13 26 -35 57 -49 70
-35 33 -33 45 7 37 21 -4 48 -24 78 -56 42 -46 49 -50 92 -50 44 0 48 2 62 37
8 20 14 37 13 38 -2 1 -27 7 -57 13 -109 25 -152 74 -166 193 -6 47 -3 65 16
105 15 32 23 70 23 109 1 33 5 66 9 73 12 18 46 14 97 -10 39 -18 65 -21 190
-22 133 -1 148 1 185 21 44 25 90 30 102 11 4 -7 8 -40 8 -73 0 -44 6 -69 20
-90 29 -43 29 -175 -1 -225 -27 -47 -75 -77 -146 -92 -46 -10 -57 -15 -52 -28
17 -40 24 -93 24 -182 0 -76 3 -98 14 -98 7 0 45 16 84 35 199 100 314 339
268 561 -29 143 -110 266 -223 337 -98 62 -251 93 -371 76z"/>
</g>
</svg>
