<?xml version="1.0" encoding="UTF-8"?>
<!DOCTYPE svg PUBLIC "-//W3C//DTD SVG 1.1//EN" "http://www.w3.org/Graphics/SVG/1.1/DTD/svg11.dtd">
<svg xmlns="http://www.w3.org/2000/svg" version="1.1" width="241px" height="302px" style="shape-rendering:geometricPrecision; text-rendering:geometricPrecision; image-rendering:optimizeQuality; fill-rule:evenodd; clip-rule:evenodd" xmlns:xlink="http://www.w3.org/1999/xlink">
<g><path style="opacity:1" fill="#0f0f0f" d="M 132.5,24.5 C 135.794,27.1558 139.127,29.8225 142.5,32.5C 142.738,34.4044 143.738,35.7377 145.5,36.5C 145.562,39.753 146.396,42.753 148,45.5C 148.172,52.346 148.672,59.0126 149.5,65.5C 154.333,68.4176 159.333,71.0843 164.5,73.5C 165.262,75.2624 166.596,76.2624 168.5,76.5C 172.5,81.1667 176.833,85.5 181.5,89.5C 181.738,91.4044 182.738,92.7377 184.5,93.5C 184.427,95.0269 185.094,96.0269 186.5,96.5C 187.338,96.8417 187.672,97.5084 187.5,98.5C 187.427,100.027 188.094,101.027 189.5,101.5C 190.674,102.514 191.34,103.847 191.5,105.5C 191.12,107.698 191.787,109.365 193.5,110.5C 193.259,112.898 193.926,114.898 195.5,116.5C 195.41,119.152 196.076,121.485 197.5,123.5C 197.5,123.833 197.5,124.167 197.5,124.5C 197.333,140.837 197.5,157.17 198,173.5C 198.191,175.708 198.691,177.708 199.5,179.5C 199.376,188.143 201.376,196.143 205.5,203.5C 205.402,205.553 206.069,207.22 207.5,208.5C 209.065,210.509 210.065,212.843 210.5,215.5C 210.427,217.027 211.094,218.027 212.5,218.5C 213.338,218.842 213.672,219.508 213.5,220.5C 213.427,222.027 214.094,223.027 215.5,223.5C 215.157,225.483 215.824,226.817 217.5,227.5C 217.157,229.483 217.824,230.817 219.5,231.5C 220.338,231.842 220.672,232.508 220.5,233.5C 221.823,236.817 223.157,240.15 224.5,243.5C 224.471,245.029 223.804,246.196 222.5,247C 201.169,247.5 179.836,247.667 158.5,247.5C 157.645,256.077 154.645,263.743 149.5,270.5C 148.833,271.833 147.833,272.833 146.5,273.5C 144.596,273.738 143.262,274.738 142.5,276.5C 140.973,276.427 139.973,277.094 139.5,278.5C 133.493,282.335 126.826,284.002 119.5,283.5C 112.174,284.002 105.507,282.335 99.5,278.5C 99.0269,277.094 98.0269,276.427 96.5,276.5C 95.0892,274.086 93.0892,272.419 90.5,271.5C 84.9861,264.465 81.6528,256.465 80.5,247.5C 59.1667,247.5 37.8333,247.5 16.5,247.5C 14.7516,245.84 14.2516,243.84 15,241.5C 18.3872,236.059 21.2205,230.392 23.5,224.5C 26.4442,222.284 28.1109,219.284 28.5,215.5C 29.5612,212.378 30.8946,209.378 32.5,206.5C 37.8154,196.618 40.482,185.952 40.5,174.5C 41.2815,156.659 41.9482,138.659 42.5,120.5C 45.342,113.989 48.0086,107.322 50.5,100.5C 52.4077,99.5144 53.4077,97.8477 53.5,95.5C 54.9063,95.0269 55.573,94.0269 55.5,92.5C 57.2624,91.7377 58.2624,90.4044 58.5,88.5C 67.448,78.8742 77.7813,71.2075 89.5,65.5C 90.3283,59.0126 90.8283,52.346 91,45.5C 92.4595,42.2522 93.6262,38.9188 94.5,35.5C 98.9475,30.7095 103.947,26.7095 109.5,23.5C 117.285,20.6758 124.952,21.0092 132.5,24.5 Z M 113.5,31.5 C 117.5,31.5 121.5,31.5 125.5,31.5C 127.181,33.0075 129.181,34.0075 131.5,34.5C 133.862,37.192 136.196,39.8587 138.5,42.5C 138.875,44.6976 139.542,46.6976 140.5,48.5C 140.5,52.8333 140.5,57.1667 140.5,61.5C 137.545,60.8413 134.545,60.5079 131.5,60.5C 127.681,59.8344 123.681,59.5011 119.5,59.5C 113.583,59.3048 107.916,59.9715 102.5,61.5C 101.167,61.5 99.8333,61.5 98.5,61.5C 98.5,57.5 98.5,53.5 98.5,49.5C 99.4511,48.0813 99.7845,46.4147 99.5,44.5C 101.25,43.3406 102.25,41.674 102.5,39.5C 105.673,36.0871 109.34,33.4205 113.5,31.5 Z M 140.5,71.5 C 141.93,72.5375 143.597,73.2041 145.5,73.5C 148.515,75.6744 151.849,77.3411 155.5,78.5C 157.147,80.3264 159.147,81.6597 161.5,82.5C 162.262,84.2624 163.596,85.2624 165.5,85.5C 171.963,92.2864 177.629,99.6198 182.5,107.5C 183.992,111.987 185.658,116.32 187.5,120.5C 188.25,138.483 188.75,156.483 189,174.5C 189.354,179.389 190.187,184.056 191.5,188.5C 192.681,198.718 196.015,208.052 201.5,216.5C 202.992,220.818 204.992,224.818 207.5,228.5C 207.427,230.027 208.094,231.027 209.5,231.5C 209.586,233.677 210.253,235.677 211.5,237.5C 150.167,238.833 88.8333,238.833 27.5,237.5C 29.3274,235.513 30.3274,233.179 30.5,230.5C 33.0841,226.334 35.4174,222 37.5,217.5C 39.0075,215.819 40.0075,213.819 40.5,211.5C 45.9852,200.226 48.9852,188.226 49.5,175.5C 50.3314,160.005 50.8314,144.339 51,128.5C 51.9787,123.105 53.1453,117.772 54.5,112.5C 55.1098,111.609 55.4431,110.609 55.5,109.5C 57.2503,108.341 58.2503,106.674 58.5,104.5C 59.3382,104.158 59.6716,103.492 59.5,102.5C 60.9063,102.027 61.573,101.027 61.5,99.5C 62.9063,99.0269 63.573,98.0269 63.5,96.5C 66.2427,94.7607 68.2427,92.4274 69.5,89.5C 70.8333,88.8333 71.8333,87.8333 72.5,86.5C 80.2121,81.3116 88.2121,76.645 96.5,72.5C 111.058,67.6205 125.724,67.2872 140.5,71.5 Z M 135.5,270.5 C 132.982,271.264 130.649,272.264 128.5,273.5C 124.19,274.08 119.857,274.414 115.5,274.5C 114.081,273.549 112.415,273.216 110.5,273.5C 104.661,270.677 99.328,267.01 94.5,262.5C 94.2503,260.326 93.2503,258.659 91.5,257.5C 91.405,255.214 90.7384,253.214 89.5,251.5C 89.5,250.5 89.5,249.5 89.5,248.5C 109.5,248.5 129.5,248.5 149.5,248.5C 147.861,257.781 143.195,265.115 135.5,270.5 Z"/></g>
<g><path style="opacity:0.275" fill="#c8c8c8" d="M 132.5,24.5 C 137.049,25.7592 140.382,28.4259 142.5,32.5C 139.127,29.8225 135.794,27.1558 132.5,24.5 Z"/></g>
<g><path style="opacity:0.749" fill="#959595" d="M 109.5,23.5 C 103.947,26.7095 98.9475,30.7095 94.5,35.5C 97.7489,29.2453 102.749,25.2453 109.5,23.5 Z"/></g>
<g><path style="opacity:0.208" fill="#b8b8b8" d="M 113.5,31.5 C 109.34,33.4205 105.673,36.0871 102.5,39.5C 104.557,34.6366 108.224,31.9699 113.5,31.5 Z"/></g>
<g><path style="opacity:0.153" fill="#bababa" d="M 125.5,31.5 C 128.313,31.0246 130.313,32.0246 131.5,34.5C 129.181,34.0075 127.181,33.0075 125.5,31.5 Z"/></g>
<g><path style="opacity:0.447" fill="#bdbdbd" d="M 131.5,34.5 C 135.236,35.9047 137.569,38.5713 138.5,42.5C 136.196,39.8587 133.862,37.192 131.5,34.5 Z"/></g>
<g><path style="opacity:0.502" fill="#a4a4a4" d="M 142.5,32.5 C 144.262,33.2623 145.262,34.5956 145.5,36.5C 143.738,35.7377 142.738,34.4044 142.5,32.5 Z"/></g>
<g><path style="opacity:0.122" fill="#cacaca" d="M 102.5,39.5 C 102.25,41.674 101.25,43.3406 99.5,44.5C 99.7497,42.326 100.75,40.6594 102.5,39.5 Z"/></g>
<g><path style="opacity:0.438" fill="#979797" d="M 94.5,35.5 C 93.6262,38.9188 92.4595,42.2522 91,45.5C 90.8283,52.346 90.3283,59.0126 89.5,65.5C 89.3337,58.4921 89.5004,51.4921 90,44.5C 90.6633,40.9647 92.1633,37.9647 94.5,35.5 Z"/></g>
<g><path style="opacity:0.582" fill="#686868" d="M 145.5,36.5 C 147.129,38.8577 148.295,41.5243 149,44.5C 149.5,51.4921 149.666,58.4921 149.5,65.5C 148.672,59.0126 148.172,52.346 148,45.5C 146.396,42.753 145.562,39.753 145.5,36.5 Z"/></g>
<g><path style="opacity:0.777" fill="#484848" d="M 98.5,49.5 C 98.5,53.5 98.5,57.5 98.5,61.5C 99.8333,61.5 101.167,61.5 102.5,61.5C 101.081,62.4511 99.4147,62.7845 97.5,62.5C 97.1818,57.9677 97.5151,53.6344 98.5,49.5 Z"/></g>
<g><path style="opacity:0.176" fill="#959595" d="M 140.5,48.5 C 141.486,52.97 141.819,57.6367 141.5,62.5C 137.922,62.4512 134.589,61.7846 131.5,60.5C 134.545,60.5079 137.545,60.8413 140.5,61.5C 140.5,57.1667 140.5,52.8333 140.5,48.5 Z"/></g>
<g><path style="opacity:0.18" fill="#bcbcbc" d="M 149.5,65.5 C 155.26,66.878 160.26,69.5446 164.5,73.5C 159.333,71.0843 154.333,68.4176 149.5,65.5 Z"/></g>
<g><path style="opacity:0.157" fill="#bbbbbb" d="M 89.5,65.5 C 77.7813,71.2075 67.448,78.8742 58.5,88.5C 66.2536,77.4206 76.5869,69.7539 89.5,65.5 Z"/></g>
<g><path style="opacity:0.796" fill="#797979" d="M 140.5,71.5 C 142.698,71.1201 144.365,71.7868 145.5,73.5C 143.597,73.2041 141.93,72.5375 140.5,71.5 Z"/></g>
<g><path style="opacity:0.765" fill="#8e8e8e" d="M 145.5,73.5 C 149.748,73.6237 153.082,75.2903 155.5,78.5C 151.849,77.3411 148.515,75.6744 145.5,73.5 Z"/></g>
<g><path style="opacity:0.031" fill="#c6c6c6" d="M 164.5,73.5 C 166.404,73.7376 167.738,74.7376 168.5,76.5C 166.596,76.2624 165.262,75.2624 164.5,73.5 Z"/></g>
<g><path style="opacity:0.024" fill="#b2b2b2" d="M 168.5,76.5 C 173.833,79.8333 178.167,84.1667 181.5,89.5C 176.833,85.5 172.5,81.1667 168.5,76.5 Z"/></g>
<g><path style="opacity:0.204" fill="#c3c3c3" d="M 155.5,78.5 C 158.198,78.8449 160.198,80.1782 161.5,82.5C 159.147,81.6597 157.147,80.3264 155.5,78.5 Z"/></g>
<g><path style="opacity:0.125" fill="#c3c3c3" d="M 96.5,72.5 C 88.2121,76.645 80.2121,81.3116 72.5,86.5C 78.943,79.2746 86.943,74.608 96.5,72.5 Z"/></g>
<g><path style="opacity:0.31" fill="#c1c1c1" d="M 161.5,82.5 C 163.404,82.7376 164.738,83.7376 165.5,85.5C 163.596,85.2624 162.262,84.2624 161.5,82.5 Z"/></g>
<g><path style="opacity:0.467" fill="#a6a6a6" d="M 58.5,88.5 C 58.2624,90.4044 57.2624,91.7377 55.5,92.5C 55.7376,90.5956 56.7376,89.2623 58.5,88.5 Z"/></g>
<g><path style="opacity:0.42" fill="#acacac" d="M 181.5,89.5 C 183.262,90.2623 184.262,91.5956 184.5,93.5C 182.738,92.7377 181.738,91.4044 181.5,89.5 Z"/></g>
<g><path style="opacity:0.035" fill="#cccccc" d="M 69.5,89.5 C 68.2427,92.4274 66.2427,94.7607 63.5,96.5C 64.7573,93.5726 66.7573,91.2393 69.5,89.5 Z"/></g>
<g><path style="opacity:0.384" fill="#a6a6a6" d="M 55.5,92.5 C 55.573,94.0269 54.9063,95.0269 53.5,95.5C 53.427,93.9731 54.0937,92.9731 55.5,92.5 Z"/></g>
<g><path style="opacity:0.259" fill="#bcbcbc" d="M 184.5,93.5 C 185.906,93.9731 186.573,94.9731 186.5,96.5C 185.094,96.0269 184.427,95.0269 184.5,93.5 Z"/></g>
<g><path style="opacity:0.235" fill="#bababa" d="M 165.5,85.5 C 173.368,91.0466 179.035,98.38 182.5,107.5C 177.629,99.6198 171.963,92.2864 165.5,85.5 Z"/></g>
<g><path style="opacity:0.043" fill="#c8c8c8" d="M 63.5,96.5 C 63.573,98.0269 62.9063,99.0269 61.5,99.5C 61.427,97.9731 62.0937,96.9731 63.5,96.5 Z"/></g>
<g><path style="opacity:0.961" fill="#636363" d="M 53.5,95.5 C 53.4077,97.8477 52.4077,99.5144 50.5,100.5C 50.7497,98.326 51.7497,96.6594 53.5,95.5 Z"/></g>
<g><path style="opacity:0.027" fill="#cecece" d="M 61.5,99.5 C 61.573,101.027 60.9063,102.027 59.5,102.5C 59.427,100.973 60.0937,99.9731 61.5,99.5 Z"/></g>
<g><path style="opacity:0.278" fill="#b2b2b2" d="M 187.5,98.5 C 188.906,98.9731 189.573,99.9731 189.5,101.5C 188.094,101.027 187.427,100.027 187.5,98.5 Z"/></g>
<g><path style="opacity:0.788" fill="#909090" d="M 50.5,100.5 C 48.0086,107.322 45.342,113.989 42.5,120.5C 43.5495,113.085 46.2162,106.418 50.5,100.5 Z"/></g>
<g><path style="opacity:0.149" fill="#c5c5c5" d="M 58.5,104.5 C 58.2503,106.674 57.2503,108.341 55.5,109.5C 55.7497,107.326 56.7497,105.659 58.5,104.5 Z"/></g>
<g><path style="opacity:0.816" fill="#787878" d="M 191.5,105.5 C 192.537,106.93 193.204,108.597 193.5,110.5C 191.787,109.365 191.12,107.698 191.5,105.5 Z"/></g>
<g><path style="opacity:0.502" fill="#9c9c9c" d="M 193.5,110.5 C 195.074,112.102 195.741,114.102 195.5,116.5C 193.926,114.898 193.259,112.898 193.5,110.5 Z"/></g>
<g><path style="opacity:0.337" fill="#b8b8b8" d="M 195.5,116.5 C 196.924,118.515 197.59,120.848 197.5,123.5C 196.076,121.485 195.41,119.152 195.5,116.5 Z"/></g>
<g><path style="opacity:0.022" fill="#d7d7d7" d="M 187.5,120.5 C 188.761,123.258 189.594,126.258 190,129.5C 190.245,148.517 190.745,167.517 191.5,186.5C 191.5,187.167 191.5,187.833 191.5,188.5C 190.187,184.056 189.354,179.389 189,174.5C 188.75,156.483 188.25,138.483 187.5,120.5 Z"/></g>
<g><path style="opacity:0.474" fill="#8c8c8c" d="M 42.5,120.5 C 41.9482,138.659 41.2815,156.659 40.5,174.5C 40.5,161.167 40.5,147.833 40.5,134.5C 40.2291,129.566 40.8958,124.9 42.5,120.5 Z"/></g>
<g><path style="opacity:0.065" fill="#e2e2e2" d="M 54.5,112.5 C 53.1453,117.772 51.9787,123.105 51,128.5C 50.8314,144.339 50.3314,160.005 49.5,175.5C 49.5,160.5 49.5,145.5 49.5,130.5C 49.6295,123.972 51.2961,117.972 54.5,112.5 Z"/></g>
<g><path style="opacity:0.614" fill="#909090" d="M 197.5,124.5 C 198.317,126.969 198.817,129.635 199,132.5C 199.5,148.163 199.667,163.83 199.5,179.5C 198.691,177.708 198.191,175.708 198,173.5C 197.5,157.17 197.333,140.837 197.5,124.5 Z"/></g>
<g><path style="opacity:0.2" fill="#c6c6c6" d="M 199.5,179.5 C 201.159,187.47 203.159,195.47 205.5,203.5C 201.376,196.143 199.376,188.143 199.5,179.5 Z"/></g>
<g><path style="opacity:0.255" fill="#b1b1b1" d="M 191.5,186.5 C 194.209,196.626 197.542,206.626 201.5,216.5C 196.015,208.052 192.681,198.718 191.5,188.5C 191.5,187.833 191.5,187.167 191.5,186.5 Z"/></g>
<g><path style="opacity:0.035" fill="#e0e0e0" d="M 40.5,134.5 C 40.5,147.833 40.5,161.167 40.5,174.5C 40.482,185.952 37.8154,196.618 32.5,206.5C 35.4485,197.706 37.6151,188.706 39,179.5C 39.1687,164.328 39.6687,149.328 40.5,134.5 Z"/></g>
<g><path style="opacity:0.212" fill="#a1a1a1" d="M 49.5,130.5 C 49.5,145.5 49.5,160.5 49.5,175.5C 48.9852,188.226 45.9852,200.226 40.5,211.5C 43.3071,201.605 45.8071,191.605 48,181.5C 48.1684,164.328 48.6684,147.328 49.5,130.5 Z"/></g>
<g><path style="opacity:0.067" fill="#dddddd" d="M 205.5,203.5 C 206.931,204.78 207.598,206.447 207.5,208.5C 206.069,207.22 205.402,205.553 205.5,203.5 Z"/></g>
<g><path style="opacity:0.282" fill="#bababa" d="M 40.5,211.5 C 40.0075,213.819 39.0075,215.819 37.5,217.5C 37.461,214.911 38.461,212.911 40.5,211.5 Z"/></g>
<g><path style="opacity:0.306" fill="#a9a9a9" d="M 210.5,215.5 C 211.906,215.973 212.573,216.973 212.5,218.5C 211.094,218.027 210.427,217.027 210.5,215.5 Z"/></g>
<g><path style="opacity:0.851" fill="#8d8d8d" d="M 28.5,215.5 C 28.1109,219.284 26.4442,222.284 23.5,224.5C 24.3901,221.052 26.0568,218.052 28.5,215.5 Z"/></g>
<g><path style="opacity:0.137" fill="#d1d1d1" d="M 213.5,220.5 C 214.906,220.973 215.573,221.973 215.5,223.5C 214.094,223.027 213.427,222.027 213.5,220.5 Z"/></g>
<g><path style="opacity:0.796" fill="#8d8d8d" d="M 215.5,223.5 C 216.674,224.514 217.34,225.847 217.5,227.5C 215.824,226.817 215.157,225.483 215.5,223.5 Z"/></g>
<g><path style="opacity:0.125" fill="#cacaca" d="M 207.5,228.5 C 208.906,228.973 209.573,229.973 209.5,231.5C 208.094,231.027 207.427,230.027 207.5,228.5 Z"/></g>
<g><path style="opacity:0.843" fill="#7e7e7e" d="M 217.5,227.5 C 218.674,228.514 219.34,229.847 219.5,231.5C 217.824,230.817 217.157,229.483 217.5,227.5 Z"/></g>
<g><path style="opacity:0.165" fill="#d2d2d2" d="M 30.5,230.5 C 30.3274,233.179 29.3274,235.513 27.5,237.5C 88.8333,238.833 150.167,238.833 211.5,237.5C 210.253,235.677 209.586,233.677 209.5,231.5C 211.059,233.608 212.392,235.941 213.5,238.5C 150.833,239.833 88.1667,239.833 25.5,238.5C 26.6913,235.432 28.358,232.765 30.5,230.5 Z"/></g>
<g><path style="opacity:0.137" fill="#d0d0d0" d="M 23.5,224.5 C 21.2205,230.392 18.3872,236.059 15,241.5C 14.2516,243.84 14.7516,245.84 16.5,247.5C 15.5041,247.586 14.6708,247.252 14,246.5C 13.3333,244.5 13.3333,242.5 14,240.5C 16.941,234.938 20.1077,229.605 23.5,224.5 Z"/></g>
<g><path style="opacity:0.776" fill="#474747" d="M 88.5,247.5 C 109.327,246.503 130.327,246.169 151.5,246.5C 151.768,248.099 151.434,249.432 150.5,250.5C 150.5,249.5 150.5,248.5 150.5,247.5C 129.833,247.5 109.167,247.5 88.5,247.5 Z"/></g>
<g><path style="opacity:0.194" fill="#cccccc" d="M 16.5,247.5 C 37.8333,247.5 59.1667,247.5 80.5,247.5C 81.6528,256.465 84.9861,264.465 90.5,271.5C 84.0729,265.606 80.0729,258.272 78.5,249.5C 57.6706,248.833 37.004,248.167 16.5,247.5 Z"/></g>
<g><path style="opacity:0.194" fill="#c8c8c8" d="M 88.5,247.5 C 109.167,247.5 129.833,247.5 150.5,247.5C 150.5,248.5 150.5,249.5 150.5,250.5C 148.871,259.784 143.871,266.451 135.5,270.5C 143.195,265.115 147.861,257.781 149.5,248.5C 129.5,248.5 109.5,248.5 89.5,248.5C 89.5,249.5 89.5,250.5 89.5,251.5C 88.5655,250.432 88.2322,249.099 88.5,247.5 Z"/></g>
<g><path style="opacity:0.193" fill="#cccccc" d="M 220.5,233.5 C 224.253,237.015 225.753,241.349 225,246.5C 224.5,247 224,247.5 223.5,248C 202.503,248.5 181.503,248.667 160.5,248.5C 159.463,257.241 155.796,264.575 149.5,270.5C 154.645,263.743 157.645,256.077 158.5,247.5C 179.836,247.667 201.169,247.5 222.5,247C 223.804,246.196 224.471,245.029 224.5,243.5C 223.157,240.15 221.823,236.817 220.5,233.5 Z"/></g>
<g><path style="opacity:0.663" fill="#a6a6a6" d="M 89.5,251.5 C 90.7384,253.214 91.405,255.214 91.5,257.5C 89.7202,256.01 89.0535,254.01 89.5,251.5 Z"/></g>
<g><path style="opacity:0.145" fill="#cacaca" d="M 91.5,257.5 C 93.2503,258.659 94.2503,260.326 94.5,262.5C 92.7497,261.341 91.7497,259.674 91.5,257.5 Z"/></g>
<g><path style="opacity:0.212" fill="#aeaeae" d="M 94.5,262.5 C 99.328,267.01 104.661,270.677 110.5,273.5C 105.997,272.847 101.997,271.013 98.5,268C 96.5359,266.549 95.2026,264.716 94.5,262.5 Z"/></g>
<g><path style="opacity:0.694" fill="#818181" d="M 135.5,270.5 C 133.91,272.821 131.577,273.821 128.5,273.5C 130.649,272.264 132.982,271.264 135.5,270.5 Z"/></g>
<g><path style="opacity:0.408" fill="#929292" d="M 128.5,273.5 C 124.263,275.527 119.93,275.861 115.5,274.5C 119.857,274.414 124.19,274.08 128.5,273.5 Z"/></g>
<g><path style="opacity:0.11" fill="#c4c4c4" d="M 146.5,273.5 C 145.738,275.262 144.404,276.262 142.5,276.5C 143.262,274.738 144.596,273.738 146.5,273.5 Z"/></g>
<g><path style="opacity:0.22" fill="#b7b7b7" d="M 90.5,271.5 C 93.0892,272.419 95.0892,274.086 96.5,276.5C 93.9108,275.581 91.9108,273.914 90.5,271.5 Z"/></g>
<g><path style="opacity:0.161" fill="#cecece" d="M 96.5,276.5 C 98.0269,276.427 99.0269,277.094 99.5,278.5C 97.9731,278.573 96.9731,277.906 96.5,276.5 Z"/></g>
<g><path style="opacity:0.051" fill="#d2d2d2" d="M 142.5,276.5 C 142.027,277.906 141.027,278.573 139.5,278.5C 139.973,277.094 140.973,276.427 142.5,276.5 Z"/></g>
</svg>
