<?xml version="1.0" standalone="no"?>
<!DOCTYPE svg PUBLIC "-//W3C//DTD SVG 20010904//EN"
 "http://www.w3.org/TR/2001/REC-SVG-20010904/DTD/svg10.dtd">
<svg version="1.0" xmlns="http://www.w3.org/2000/svg"
 width="139.000000pt" height="125.000000pt" viewBox="0 0 139.000000 125.000000"
 preserveAspectRatio="xMidYMid meet">

<g transform="translate(0.000000,125.000000) scale(0.100000,-0.100000)"
fill="#000000" stroke="none">
<path d="M813 1025 c-30 -15 -61 -41 -76 -63 -29 -42 -51 -125 -42 -160 6 -24
5 -24 -47 -17 -125 16 -256 80 -354 171 -61 56 -65 55 -79 -18 -11 -58 12
-135 54 -181 l36 -40 -30 5 c-16 3 -38 9 -47 13 -21 9 -23 -3 -7 -58 13 -49
73 -115 124 -138 l40 -19 -47 0 c-27 0 -48 -4 -48 -8 0 -17 57 -88 86 -106 15
-11 48 -24 74 -31 l45 -11 -55 -32 c-57 -33 -162 -62 -227 -62 l-38 -1 48 -25
c161 -84 393 -84 563 -2 99 47 227 176 276 278 44 91 68 179 68 253 0 52 2 56
52 106 54 54 58 68 14 51 -15 -5 -37 -10 -48 -10 -19 0 -19 2 7 27 15 15 33
39 40 53 l13 26 -66 -22 c-66 -22 -67 -23 -87 -4 -58 55 -161 65 -242 25z"/>
</g>
</svg>
